<svg aria-hidden="true" style="position: absolute; width: 0; height: 0; overflow: hidden;" version="1.1" xmlns="http://www.w3.org/2000/svg" xmlns:xlink="http://www.w3.org/1999/xlink">
<defs>
<symbol id="quotes-down" viewBox="0 0 30 30">
<path fill="#fff" style="fill: var(--color1, #fff)" d="M22.826-0c1.304 0 2.522 0.5 3.652 1.5 1.087 1.043 1.957 2.391 2.609 4.043 0.609 1.652 0.913 3.413 0.913 5.283 0 2.87-0.5 5.565-1.5 8.087-1.043 2.565-2.304 4.717-3.783 6.457-1.478 1.783-2.891 3.043-4.239 3.783h-0.065l-2.283-2.087v-0.913c1.087-1 2.109-2.435 3.065-4.304 0.956-1.826 1.435-4.087 1.435-6.783 0-1.391-0.196-2.522-0.587-3.391s-0.978-1.826-1.761-2.87c-0.652-0.826-1.13-1.543-1.435-2.152s-0.457-1.348-0.457-2.217c0-1.304 0.435-2.37 1.304-3.196 0.826-0.826 1.87-1.239 3.13-1.239zM4.696-0c1.304 0 2.5 0.5 3.587 1.5 1.087 1.043 1.957 2.391 2.609 4.043 0.609 1.652 0.913 3.413 0.913 5.283 0 2.87-0.5 5.565-1.5 8.087-1.043 2.565-2.304 4.739-3.783 6.522s-2.891 3.022-4.239 3.717h-0.065l-2.217-2.087v-0.913c1.087-1 2.109-2.435 3.065-4.304 0.957-1.826 1.435-4.087 1.435-6.783 0-1.391-0.196-2.522-0.587-3.391s-0.978-1.826-1.761-2.87c-0.652-0.826-1.13-1.543-1.435-2.152s-0.457-1.348-0.457-2.217c0-1.304 0.435-2.37 1.304-3.196 0.826-0.826 1.87-1.239 3.13-1.239z"></path>
</symbol>
<symbol id="quotes-up" viewBox="0 0 31 30">
<path fill="#fff" style="fill: var(--color1, #fff)" d="M7.628 29.543c-1.304 0-2.522-0.5-3.652-1.5-1.087-1.043-1.957-2.391-2.609-4.043-0.609-1.652-0.913-3.413-0.913-5.283 0-2.87 0.5-5.565 1.5-8.087 1.043-2.565 2.304-4.717 3.783-6.457 1.478-1.783 2.891-3.043 4.239-3.783h0.065l2.283 2.087v0.913c-1.087 1-2.109 2.435-3.065 4.304-0.957 1.826-1.435 4.087-1.435 6.783 0 1.391 0.196 2.522 0.587 3.391s0.978 1.826 1.761 2.87c0.652 0.826 1.13 1.543 1.435 2.152s0.457 1.348 0.457 2.217c0 1.304-0.435 2.37-1.304 3.196-0.826 0.826-1.87 1.239-3.13 1.239zM25.759 29.543c-1.304 0-2.5-0.5-3.587-1.5-1.087-1.043-1.957-2.391-2.609-4.043-0.609-1.652-0.913-3.413-0.913-5.283 0-2.87 0.5-5.565 1.5-8.087 1.043-2.565 2.304-4.739 3.782-6.522s2.891-3.022 4.239-3.717h0.065l2.217 2.087v0.913c-1.087 1-2.109 2.435-3.065 4.304-0.957 1.826-1.435 4.087-1.435 6.783 0 1.391 0.196 2.522 0.587 3.391s0.978 1.826 1.761 2.87c0.652 0.826 1.13 1.543 1.435 2.152s0.457 1.348 0.457 2.217c0 1.304-0.435 2.37-1.304 3.196-0.826 0.826-1.87 1.239-3.13 1.239z"></path>
</symbol>
<symbol id="cross" viewBox="0 0 30 30">
<path d="M30 3.021l-3.021-3.021-11.979 11.979-11.979-11.979-3.021 3.021 11.979 11.979-11.979 11.979 3.021 3.021 11.979-11.979 11.979 11.979 3.021-3.021-11.979-11.979 11.979-11.979z"></path>
</symbol>
<symbol id="menu" viewBox="0 0 45 30">
<path d="M0 30h45v-5h-45v5zM0 17.5h45v-5h-45v5zM0 0v5h45v-5h-45z"></path>
</symbol>
<symbol id="arrow-up" viewBox="0 0 16 16">
<path d="M8.909 15.273v-11.064l5.082 5.082 1.282-1.291-7.273-7.273-7.273 7.273 1.282 1.282 5.082-5.073v11.064h1.818z"></path>
</symbol>
<symbol id="call" viewBox="0 0 29 29">
<path fill="#fff" style="fill: var(--color1, #fff)" d="M20.038 15.205c-0.056 0.085-0.056 0.169-0.085 0.282-0.028 0.366 0.254 0.705 0.62 0.733s0.705-0.254 0.733-0.62c0-0.085 0-0.169 0.028-0.31 0-0.141 0-0.225 0-0.31 0-0.817-0.141-1.606-0.395-2.367-0.338-0.986-0.93-1.86-1.635-2.593-0.874-0.874-1.945-1.494-3.156-1.832-0.564-0.141-1.184-0.225-1.776-0.225-0.197 0-0.395 0-0.62 0.028-0.197 0.028-0.395 0.056-0.592 0.085-0.366 0.056-0.62 0.423-0.536 0.761 0.056 0.366 0.423 0.62 0.761 0.535 0.169-0.028 0.31-0.056 0.479-0.056 0.028 0 0.056 0 0.085 0 0.141 0 0.282-0.028 0.423-0.028 1.55 0 2.987 0.62 4.002 1.663 1.015 1.015 1.635 2.396 1.663 3.946v0.056c0 0.113 0 0.197 0 0.254z"></path>
<path fill="#fff" style="fill: var(--color1, #fff)" d="M23.758 15.825c-0.028 0.366 0.254 0.705 0.62 0.733s0.704-0.254 0.733-0.62c0.028-0.31 0.028-0.62 0.028-0.93 0-0.62-0.056-1.212-0.141-1.804-0.366-2.255-1.465-4.284-3.016-5.834-1.776-1.776-4.143-2.931-6.764-3.128-0.282-0.028-0.592-0.028-0.874-0.028-0.31 0-0.62 0-0.93 0.028s-0.62 0.056-0.93 0.113c-0.366 0.056-0.62 0.423-0.536 0.761 0.056 0.366 0.423 0.62 0.761 0.535 0.197-0.028 0.366-0.056 0.564-0.085 0.085 0 0.169-0.028 0.254-0.028 0.282-0.028 0.564-0.028 0.817-0.028 0.958 0 1.86 0.141 2.734 0.395 1.522 0.451 2.875 1.268 3.974 2.367 0.902 0.902 1.635 2.001 2.114 3.185 0.423 1.071 0.676 2.255 0.676 3.495 0 0.085 0 0.197 0 0.282-0.056 0.225-0.085 0.395-0.085 0.592z"></path>
<path fill="#fff" style="fill: var(--color1, #fff)" d="M24.716 4.664c-2.677-2.677-6.341-4.312-10.4-4.312-0.423 0-0.846 0.028-1.268 0.056s-0.846 0.085-1.268 0.169c-0.366 0.056-0.62 0.423-0.536 0.761 0.056 0.366 0.423 0.62 0.761 0.535 0.197-0.028 0.366-0.056 0.564-0.085s0.395-0.056 0.592-0.056 0.761-0.056 1.155-0.056c3.664 0 6.989 1.494 9.413 3.889 2.396 2.396 3.889 5.721 3.889 9.413 0 0.197 0 0.423 0 0.62 0 0.169-0.028 0.338-0.028 0.536-0.028 0.366 0.254 0.705 0.62 0.733s0.705-0.254 0.733-0.62c0.028-0.423 0.056-0.846 0.056-1.24 0-4.030-1.635-7.694-4.284-10.343z"></path>
<path fill="#fff" style="fill: var(--color1, #fff)" d="M27.957 21.743l-4.988-2.677c-1.663-0.902-1.719-0.31-3.466 1.55-0.423 0.451-1.212 1.635-2.142 1.409-1.945-0.479-5.58-3.326-6.764-4.622-0.564-0.62-2.987-3.579-3.016-4.538-0.056-1.465 3.156-2.198 2.114-4.988l-2.226-4.988c-2.086-4.791-7.919 2.875-7.44 6.454 1.24 8.821 16.713 23.082 25.337 18.375 1.916-1.071 4.509-4.819 2.593-5.975z"></path>
</symbol>
</defs>
</svg>
